<?xml version="1.0" encoding="UTF-8"?>
<svg width="200" height="200" viewBox="0 0 200 200" fill="none" xmlns="http://www.w3.org/2000/svg">
  <!-- 预警标志背景 -->
  <circle cx="100" cy="100" r="90" fill="#FF4D4F" opacity="0.1"/>
  
  <!-- 云朵 -->
  <path d="M140 85c0-22-18-40-40-40-19 0-35 13-39 31-7-5-15-8-24-8-22 0-40 18-40 40s18 40 40 40h103c17 0 30-13 30-30s-13-30-30-30c0-1 0-2 0-3z" fill="#1890FF" opacity="0.8"/>
  
  <!-- 闪电 -->
  <path d="M105 80l-25 35h20l-15 35 35-45h-20l15-25z" fill="#FAAD14"/>
  
  <!-- 预警标志边框 -->
  <path d="M100 20c44.183 0 80 35.817 80 80s-35.817 80-80 80-80-35.817-80-80 35.817-80 80-80zm0-10C50.294 10 10 50.294 10 100s40.294 90 90 90 90-40.294 90-90S149.706 10 100 10z" fill="#FF4D4F"/>
</svg>
